<svg height="496pt" viewBox="0 -59 496 495" width="496pt" xmlns="http://www.w3.org/2000/svg"><path d="m440 184.5h-128c-8.835938 0-16 7.164062-16 16s7.164062 16 16 16h128c8.835938 0 16-7.164062 16-16s-7.164062-16-16-16zm0 0" fill="#754c29"/><path d="m472 8.5c-8.835938 0-16 7.164062-16 16v88h32v-88c0-8.835938-7.164062-16-16-16zm0 0" fill="#a97c50"/><path d="m40 208.5c0 8.835938 7.164062 16 16 16h128c8.835938 0 16-7.164062 16-16s-7.164062-16-16-16h-128c-8.835938 0-16 7.164062-16 16zm0 0" fill="#754c29"/><path d="m40 120.5v-88c0-8.835938-7.164062-16-16-16s-16 7.164062-16 16v88zm0 0" fill="#a97c50"/><path d="m408 96.5c0-8.835938-7.164062-16-16-16h-288c-8.835938 0-16 7.164062-16 16s7.164062 16 16 16h288c8.835938 0 16-7.164062 16-16zm0 0" fill="#acabb1"/><path d="m168 368.5h160l-16-32h-128zm0 0" fill="#a97c50"/><path d="m472 .5c-13.253906 0-24 10.746094-24 24v88c.03125 3.832031 2.8125 7.085938 6.59375 7.71875l-16.050781 56.28125h-126.542969c-11.675781-.023438-21.664062 8.378906-23.644531 19.886719-1.976563 11.507812 4.632812 22.761719 15.644531 26.640625v81.472656c0 4.417969 3.582031 8 8 8s8-3.582031 8-8v-80h112v120c0 4.417969 3.582031 8 8 8s8-3.582031 8-8v-121.472656c8.4375-2.945313 14.523438-10.363282 15.765625-19.214844s-2.566406-17.652344-9.871094-22.808594l17.304688-60.503906h16.800781c4.417969 0 8-3.582031 8-8v-88c0-13.253906-10.746094-24-24-24zm-32 208h-128c-4.417969 0-8-3.582031-8-8s3.582031-8 8-8h128c4.417969 0 8 3.582031 8 8s-3.582031 8-8 8zm40-104h-16v-80c0-4.417969 3.582031-8 8-8s8 3.582031 8 8zm0 0"/><path d="m176 232.5v72c0 4.417969 3.582031 8 8 8s8-3.582031 8-8v-73.472656c11.011719-3.878906 17.621094-15.132813 15.644531-26.640625-1.980469-11.507813-11.96875-19.910157-23.644531-19.886719h-126.542969l-16.050781-56.28125c3.78125-.632812 6.5625-3.886719 6.59375-7.71875v-88c0-13.253906-10.746094-24-24-24s-24 10.746094-24 24v88c0 4.417969 3.582031 8 8 8h16.839844l17.265625 60.503906c-7.304688 5.15625-11.113281 13.957032-9.871094 22.808594s7.328125 16.269531 15.765625 19.214844v113.472656c0 4.417969 3.582031 8 8 8s8-3.582031 8-8v-112zm16-24c0 4.417969-3.582031 8-8 8h-128c-4.417969 0-8-3.582031-8-8s3.582031-8 8-8h128c4.417969 0 8 3.582031 8 8zm-176-176c0-4.417969 3.582031-8 8-8s8 3.582031 8 8v80h-16zm0 0"/><path d="m319.199219 332.925781c-1.359375-2.726562-4.152344-4.441406-7.199219-4.425781h-56v-208h136c13.253906 0 24-10.746094 24-24s-10.746094-24-24-24h-288c-13.253906 0-24 10.746094-24 24s10.746094 24 24 24h136v208h-56c-3.03125 0-5.804688 1.710938-7.160156 4.425781l-16 32c-1.238282 2.480469-1.105469 5.425781.351562 7.78125 1.460938 2.359375 4.035156 3.792969 6.808594 3.792969h160c2.78125.015625 5.367188-1.414062 6.835938-3.773438 1.46875-2.363281 1.605468-5.316406.363281-7.800781zm-223.199219-236.425781c0-4.417969 3.582031-8 8-8h288c4.417969 0 8 3.582031 8 8s-3.582031 8-8 8h-288c-4.417969 0-8-3.582031-8-8zm84.945312 264 8-16h118.109376l8 16zm0 0"/></svg>